# xmcd CD database file
#
# Track frame offsets:
#	150
#	13950
#	28087
#	46487
#	64012
#	83937
#	102762
#	123150
#	140150
#	160775
#	179875
#	206050
#	226887
#	247725
#	263700
#	280450
#	299947
#	318787
#
# Disc length: 4505 seconds
#
# Revision: 5
# Processed by: cddbd v1.5.2PL0 Copyright (c) Steve Scherf et al.
# Submitted via: CDex 1.82
#
DISCID=10119712
DTITLE=Various Artist - Kuschel Rock 4 - CD2
DYEAR=1990
DGENRE=Rock
TTITLE0=Simon and Garfunkel - The Sound Of Silence
TTITLE1=America - The Last Unicorn
TTITLE2=Marillion - Kayleigh
TTITLE3=Natalie Cole - Miss You Like Crazy
TTITLE4=Styx - Babe
TTITLE5=Joe Cocker - When The Night Comes
TTITLE6=The Rolling Stones - Angie
TTITLE7=Cyndi Lauper - True Colors
TTITLE8=Whitesnake - Is This Love
TTITLE9=Bonnie Tyler and Mike Oldfield - Islands
TTITLE10=George Michael - One More Try
TTITLE11=Arthur Baker And The Backbeat Disciples - The Message Is Love
TTITLE12=Belinda Carlisle - Vision Of You
TTITLE13=Bee Gees - How Deep Is Your Love
TTITLE14=P.M. Sampson and Double Key - We Love To Love
TTITLE15=Spandau Ballet - True
TTITLE16=Roxy Music - Avalon
TTITLE17=Tina Turner - I Don't Wanna Lose You
EXTD=YEAR: 1990
EXTT0=
EXTT1=
EXTT2=
EXTT3=
EXTT4=
EXTT5=
EXTT6=
EXTT7=
EXTT8=
EXTT9=
EXTT10=
EXTT11=
EXTT12=
EXTT13=
EXTT14=
EXTT15=
EXTT16=
EXTT17=
PLAYORDER=
